# xmcd CD database file
#
# Track frame offsets:
#	150
#	18175
#	35121
#	53448
#	72662
#	92477
#	111039
#	130240
#	149884
#	170709
#	186419
#	209607
#	232188
#	250993
#
# Disc length: 3597 seconds
#
# Revision: 3
# Processed by: cddbd v1.4PL0 Copyright (c) Steve Scherf et al.
# Submitted via: CDex 1.40Release
#
DISCID=da0e0b0e
DTITLE=ALEX BARONI - SEMPLICEMENTE
DYEAR=2002
DGENRE=Easy Listening
TTITLE0=La distanza di un amore
TTITLE1=Binario
TTITLE2=Speriamo
TTITLE3=Onde
TTITLE4=Dimmi che ci sei
TTITLE5=Pavimento liquido
TTITLE6=Cambiare
TTITLE7=Sei tu o lei (quello che voglio)
TTITLE8=Ce la farò
TTITLE9=Scrivi qualcosa per me
TTITLE10=Male che fa male
TTITLE11=Signora fantasia
TTITLE12=La voce della luna
TTITLE13=Dedicato a te
EXTD=YEAR: 2002 ID3G: 98
EXTT0=
EXTT1=
EXTT2=
EXTT3=
EXTT4=
EXTT5=
EXTT6=
EXTT7=
EXTT8=
EXTT9=
EXTT10=
EXTT11=
EXTT12=
EXTT13=
PLAYORDER=
